<?xml version="1.0" encoding="utf-8"?>
<!-- Generator: Adobe Illustrator 24.3.0, SVG Export Plug-In . SVG Version: 6.00 Build 0)  -->
<svg version="1.1" id="Layer_1" xmlns="http://www.w3.org/2000/svg" xmlns:xlink="http://www.w3.org/1999/xlink" x="0px" y="0px"
	 viewBox="0 0 1080 1920" style="enable-background:new 0 0 1080 1920;" xml:space="preserve">
<style type="text/css">
	.st0{fill:none;stroke:#1D1D1B;stroke-miterlimit:10;}
	.st1{opacity:0.43;fill:none;stroke:#FFFFFF;stroke-miterlimit:10;}
	.st2{fill:none;stroke:#FFFFFF;stroke-miterlimit:10;}
	.st3{fill:#1D1D1B;}
	.st4{opacity:0.43;fill:#FFFFFF;}
	.st5{fill:#FFFFFF;}
</style>
<image style="overflow:visible;" width="591" height="733" xlink:href="A13E25EE.jpg"  transform="matrix(1 0 0 1 -7652 -7232)">
</image>
<image style="overflow:visible;" width="591" height="733" xlink:href="A13E25F2.jpg"  transform="matrix(1 0 0 1 -2011.8813 611.1531)">
</image>
<circle class="st0" cx="-966.1" cy="698.5" r="46.9"/>
<path class="st1" d="M-900.8,678.1c-25.7,0-46.5-20.6-46.9-46.2"/>
<path class="st2" d="M-1157.2,678.1H-775c12.9,0,23.4,10.5,23.4,23.4V1260c0,12.9-10.5,23.4-23.4,23.4h-382.2
	c-12.9,0-23.4-10.5-23.4-23.4V701.5C-1180.6,688.6-1170.1,678.1-1157.2,678.1z"/>
<circle class="st3" cx="-444.1" cy="698.5" r="46.9"/>
<path class="st4" d="M-378.8,678.1c-12.5,0-23.9-4.9-32.3-12.9c-8.8-8.4-14.6,12.9-14.6,12.9L-378.8,678.1"/>
<path class="st4" d="M-509.5,678.1c12.5,0,23.9-4.9,32.3-12.9c8.8-8.4,14.6,12.9,14.6,12.9L-509.5,678.1"/>
<path class="st3" d="M-635.2,678.1H-253c12.9,0,23.4,10.5,23.4,23.4V1260c0,12.9-10.5,23.4-23.4,23.4h-382.2
	c-12.9,0-23.4-10.5-23.4-23.4V701.5C-658.6,688.6-648.2,678.1-635.2,678.1z"/>
<path class="st5" d="M970.6,497.9H687.2l0,0c-28.2,0-53.9-11.1-72.9-29.1c0,0-0.1-0.1-0.1-0.1c-19.1-18.8-45.3-30.5-74.2-30.5
	c-28.8,0-54.9,11.5-73.9,30.2c-0.2,0.1-0.3,0.3-0.5,0.4c-19,18-44.6,29.1-72.9,29.1l0,0H109.4c-29.1,0-52.7,23.6-52.7,52.7V1809
	c0,29.1,23.6,52.7,52.7,52.7h861.2c29.1,0,52.7-23.6,52.7-52.7V550.6C1023.3,521.5,999.7,497.9,970.6,497.9z"/>
</svg>
